<svg width="24" height="24" viewBox="0 0 24 24" fill="none" xmlns="http://www.w3.org/2000/svg">
<path d="M10.3303 16.5929H4.02954" stroke="white" stroke-width="1.5" stroke-linecap="round" stroke-linejoin="round"/>
<path d="M13.1404 6.90042H19.4411" stroke="white" stroke-width="1.5" stroke-linecap="round" stroke-linejoin="round"/>
<path fill-rule="evenodd" clip-rule="evenodd" d="M8.72629 6.84625C8.72629 5.5506 7.66813 4.5 6.36314 4.5C5.05816 4.5 4 5.5506 4 6.84625C4 8.14191 5.05816 9.19251 6.36314 9.19251C7.66813 9.19251 8.72629 8.14191 8.72629 6.84625Z" stroke="white" stroke-width="1.5" stroke-linecap="round" stroke-linejoin="round"/>
<path fill-rule="evenodd" clip-rule="evenodd" d="M20 16.5538C20 15.2581 18.9426 14.2075 17.6376 14.2075C16.3318 14.2075 15.2737 15.2581 15.2737 16.5538C15.2737 17.8494 16.3318 18.9 17.6376 18.9C18.9426 18.9 20 17.8494 20 16.5538Z" stroke="white" stroke-width="1.5" stroke-linecap="round" stroke-linejoin="round"/>
</svg>
