<svg width="42" height="42" viewBox="0 0 42 42" fill="none" xmlns="http://www.w3.org/2000/svg">
<path d="M14.1057 8.29499C17.3334 6.73889 24.2214 5.27729 31.9767 10.3299C32.0923 10.4052 32.2215 10.457 32.3571 10.4823C32.4927 10.5076 32.6319 10.506 32.7668 10.4776C32.9018 10.4491 33.0298 10.3943 33.1436 10.3164C33.2574 10.2384 33.3547 10.1388 33.4299 10.0233C33.5052 9.90774 33.557 9.77849 33.5824 9.64293C33.6077 9.50736 33.6061 9.36813 33.5776 9.23319C33.5491 9.09825 33.4944 8.97023 33.4164 8.85646C33.3385 8.74268 33.2389 8.64538 33.1233 8.57009C24.6456 3.04709 16.9596 4.58639 13.1943 6.40499C13.0645 6.46122 12.9474 6.54311 12.85 6.64573C12.7527 6.74835 12.677 6.8696 12.6277 7.00218C12.5783 7.13476 12.5563 7.27595 12.5628 7.41727C12.5694 7.55859 12.6045 7.69713 12.6659 7.82456C12.7274 7.95199 12.8139 8.06568 12.9204 8.15882C13.0269 8.25196 13.1511 8.32262 13.2856 8.36656C13.4201 8.4105 13.562 8.4268 13.703 8.41451C13.8439 8.40221 13.9809 8.36155 14.1057 8.29499V8.29499ZM10.3089 9.64319C10.4616 9.87577 10.5158 10.1595 10.4595 10.4319C10.4032 10.7044 10.241 10.9434 10.0086 11.0964C8.91035 11.8188 7.67765 13.3749 7.20515 14.1834C7.13524 14.3022 7.0426 14.4062 6.93253 14.4892C6.82246 14.5723 6.6971 14.6329 6.56362 14.6675C6.43014 14.7021 6.29115 14.7101 6.15459 14.691C6.01802 14.6719 5.88656 14.626 5.7677 14.5561C5.52765 14.415 5.35352 14.1842 5.28362 13.9146C5.24901 13.7811 5.24102 13.6421 5.26012 13.5056C5.27923 13.369 5.32504 13.2375 5.39495 13.1187C5.96195 12.1527 7.38995 10.3047 8.85575 9.34079C9.08859 9.1883 9.37245 9.13449 9.64494 9.19119C9.91744 9.2479 10.1563 9.41047 10.3089 9.64319V9.64319ZM22.05 9.53399C21.7716 9.53399 21.5045 9.64461 21.3076 9.84153C21.1107 10.0384 21 10.3055 21 10.584C21 10.8625 21.1107 11.1295 21.3076 11.3265C21.5045 11.5234 21.7716 11.634 22.05 11.634C25.5276 11.634 33.6294 14.5236 35.721 25.3953C35.7411 25.536 35.7895 25.6712 35.8633 25.7926C35.9371 25.9141 36.0348 26.0193 36.1505 26.1019C36.2661 26.1844 36.3974 26.2427 36.5362 26.273C36.675 26.3034 36.8186 26.3053 36.9582 26.2785C37.0978 26.2518 37.2305 26.197 37.3482 26.1174C37.466 26.0379 37.5664 25.9352 37.6434 25.8158C37.7203 25.6963 37.7722 25.5624 37.7959 25.4223C37.8196 25.2821 37.8146 25.1386 37.7811 25.0005C35.4753 13.0053 26.3928 9.53399 22.0521 9.53399H22.05ZM19.6245 22.6821C17.7975 24.1668 16.4178 28.3227 20.7963 36.2397C20.9311 36.4836 20.9635 36.7711 20.8863 37.0389C20.8091 37.3067 20.6287 37.5329 20.3847 37.6677C20.1408 37.8025 19.8533 37.8348 19.5855 37.7576C19.3177 37.6804 19.0915 37.5 18.9567 37.2561C14.4459 29.0955 15.2229 23.5515 18.2994 21.0525C21.2898 18.6249 26.0064 19.677 27.2937 23.8329C27.4638 24.3852 27.6003 25.0467 27.7347 25.7082L27.804 26.04C27.972 26.8359 28.1568 27.6675 28.4298 28.5054C28.9737 30.1707 29.8494 31.8066 31.5399 33.0561C31.7554 33.2246 31.8966 33.4705 31.9335 33.7415C31.9705 34.0125 31.9002 34.2872 31.7377 34.5072C31.5751 34.7271 31.3332 34.875 31.0633 34.9193C30.7934 34.9637 30.5169 34.9009 30.2925 34.7445C28.1358 33.1527 27.0606 31.0779 26.4327 29.1585C26.1548 28.2752 25.9262 27.3771 25.7481 26.4684L25.6767 26.1156C25.5717 25.5556 25.4413 25.0006 25.2861 24.4524C24.4692 21.8127 21.5355 21.1302 19.6245 22.6821V22.6821ZM32.5479 25.1391C32.5446 24.9985 32.513 24.86 32.4551 24.7318C32.3972 24.6037 32.3141 24.4884 32.2108 24.393C32.1075 24.2975 31.9861 24.2238 31.8538 24.1762C31.7215 24.1286 31.5809 24.108 31.4405 24.1158C31.3 24.1235 31.1626 24.1594 31.0363 24.2212C30.91 24.2831 30.7974 24.3697 30.7052 24.476C30.6131 24.5822 30.5431 24.7058 30.4997 24.8396C30.4562 24.9733 30.44 25.1145 30.4521 25.2546C30.6579 29.0514 33.0057 31.0212 34.3287 31.4475C34.5932 31.5302 34.8796 31.5051 35.1256 31.3776C35.3715 31.2501 35.5571 31.0305 35.6419 30.7667C35.7267 30.5029 35.7038 30.2163 35.5782 29.9694C35.4526 29.7224 35.2345 29.5351 34.9713 29.4483C34.4946 29.295 32.7096 28.0875 32.5479 25.1412V25.1391ZM23.1 26.25C23.1 25.9715 22.9894 25.7044 22.7925 25.5075C22.5956 25.3106 22.3285 25.2 22.05 25.2C21.7716 25.2 21.5045 25.3106 21.3076 25.5075C21.1107 25.7044 21 25.9715 21 26.25C21 28.4445 21.2709 30.1371 21.9177 31.7898C22.5561 33.4173 23.5389 34.9482 24.8682 36.8298C24.9459 36.9466 25.0463 37.0466 25.1633 37.124C25.2803 37.2014 25.4116 37.2546 25.5495 37.2804C25.6874 37.3061 25.829 37.304 25.9661 37.2742C26.1032 37.2443 26.2329 37.1873 26.3475 37.1064C26.4622 37.0256 26.5595 36.9226 26.6337 36.8035C26.7078 36.6845 26.7574 36.5518 26.7795 36.4132C26.8015 36.2747 26.7956 36.1331 26.762 35.9969C26.7284 35.8607 26.6679 35.7326 26.5839 35.6202C25.2651 33.7512 24.4104 32.3967 23.8728 31.0212C23.3436 29.6751 23.1 28.2555 23.1 26.25V26.25ZM16.737 18.459C13.1334 21.2478 11.0628 27.1572 14.5908 34.1796C14.7131 34.4282 14.732 34.7151 14.6436 34.9777C14.5552 35.2403 14.3666 35.4573 14.1189 35.5814C13.8712 35.7056 13.5845 35.7268 13.3212 35.6404C13.058 35.554 12.8395 35.3671 12.7134 35.1204C8.78435 27.3063 10.9641 20.2713 15.4476 16.8C17.6757 15.0759 20.4666 14.2464 23.2743 14.7C26.0925 15.1578 28.812 16.8924 30.9246 20.0697C31.001 20.1845 31.0541 20.3133 31.0807 20.4487C31.1073 20.584 31.107 20.7233 31.0798 20.8585C31.0526 20.9938 30.999 21.1223 30.9221 21.2369C30.8452 21.3514 30.7466 21.4496 30.6317 21.526C30.5168 21.6024 30.3881 21.6554 30.2527 21.6821C30.1174 21.7087 29.9781 21.7084 29.8428 21.6812C29.7076 21.654 29.5791 21.6004 29.4645 21.5235C29.35 21.4466 29.2517 21.3479 29.1753 21.2331C27.3378 18.4674 25.0992 17.1255 22.9383 16.7748C20.7648 16.422 18.5493 17.0541 16.7349 18.4611L16.737 18.459ZM17.7597 12.1674C17.8894 12.1202 18.0084 12.048 18.1101 11.9548C18.2118 11.8617 18.2942 11.7494 18.3525 11.6244C18.4108 11.4994 18.4439 11.3641 18.4499 11.2263C18.456 11.0885 18.4348 10.9509 18.3876 10.8213C18.3405 10.6917 18.2683 10.5726 18.1751 10.4709C18.0819 10.3692 17.9696 10.2869 17.8446 10.2286C17.7196 10.1702 17.5844 10.1371 17.4466 10.1311C17.3088 10.1251 17.1712 10.1462 17.0415 10.1934C7.21355 13.7634 4.88255 23.184 5.78975 29.5491C5.82929 29.8248 5.97674 30.0735 6.19964 30.2405C6.42255 30.4074 6.70266 30.479 6.97835 30.4395C7.25404 30.3999 7.50273 30.2525 7.66972 30.0296C7.8367 29.8067 7.90829 29.5266 7.86875 29.2509C7.04765 23.5011 9.17495 15.2859 17.7597 12.1674V12.1674Z" fill="white"/>
</svg>
