<svg width="32" height="32" viewBox="0 0 32 32" fill="none" xmlns="http://www.w3.org/2000/svg">
<path fill-rule="evenodd" clip-rule="evenodd" d="M2.66675 15.9991C2.66675 8.64044 8.64008 2.66577 16.0001 2.66577C23.3734 2.66577 29.3334 8.64044 29.3334 15.9991C29.3334 23.3604 23.3734 29.3324 16.0001 29.3324C8.64008 29.3324 2.66675 23.3604 2.66675 15.9991ZM14.8267 10.9458C14.8267 10.3071 15.3601 9.77244 16.0001 9.77244C16.6401 9.77244 17.1601 10.3071 17.1601 10.9458V16.8391C17.1601 17.4804 16.6401 17.9991 16.0001 17.9991C15.3601 17.9991 14.8267 17.4804 14.8267 16.8391V10.9458ZM16.0134 22.2404C15.3601 22.2404 14.8401 21.7071 14.8401 21.0671C14.8401 20.4271 15.3601 19.9071 16.0001 19.9071C16.6534 19.9071 17.1734 20.4271 17.1734 21.0671C17.1734 21.7071 16.6534 22.2404 16.0134 22.2404Z" fill="white"/>
</svg>
