<svg width="24" height="24" viewBox="0 0 24 24" fill="none" xmlns="http://www.w3.org/2000/svg">
<g id="Iconly/Light-Outline/Show">
<g id="Show">
<path id="Fill 1" fill-rule="evenodd" clip-rule="evenodd" d="M11.9996 9.64136C10.6696 9.64136 9.58862 10.7234 9.58862 12.0534C9.58862 13.3824 10.6696 14.4634 11.9996 14.4634C13.3296 14.4634 14.4116 13.3824 14.4116 12.0534C14.4116 10.7234 13.3296 9.64136 11.9996 9.64136ZM11.9996 15.9634C9.84262 15.9634 8.08862 14.2094 8.08862 12.0534C8.08862 9.89636 9.84262 8.14136 11.9996 8.14136C14.1566 8.14136 15.9116 9.89636 15.9116 12.0534C15.9116 14.2094 14.1566 15.9634 11.9996 15.9634Z" fill="black"/>
<g id="Group 5">
<mask id="mask0_33437_4760" style="mask-type:alpha" maskUnits="userSpaceOnUse" x="2" y="4" width="20" height="17">
<path id="Clip 4" fill-rule="evenodd" clip-rule="evenodd" d="M2.00024 4.00024H22.0001V20.1052H2.00024V4.00024Z" fill="white"/>
</mask>
<g mask="url(#mask0_33437_4760)">
<path id="Fill 3" fill-rule="evenodd" clip-rule="evenodd" d="M3.56999 12.0525C5.42999 16.1615 8.56299 18.6045 12 18.6055C15.437 18.6045 18.57 16.1615 20.43 12.0525C18.57 7.94451 15.437 5.50151 12 5.50051C8.56399 5.50151 5.42999 7.94451 3.56999 12.0525ZM12.002 20.1055H11.998H11.997C7.86099 20.1025 4.14699 17.2035 2.06099 12.3485C1.97999 12.1595 1.97999 11.9455 2.06099 11.7565C4.14699 6.90251 7.86199 4.00351 11.997 4.00051C11.999 3.99951 11.999 3.99951 12 4.00051C12.002 3.99951 12.002 3.99951 12.003 4.00051C16.139 4.00351 19.853 6.90251 21.939 11.7565C22.021 11.9455 22.021 12.1595 21.939 12.3485C19.854 17.2035 16.139 20.1025 12.003 20.1055H12.002Z" fill="black"/>
</g>
</g>
</g>
</g>
</svg>
