<svg width="32" height="32" viewBox="0 0 32 32" fill="none" xmlns="http://www.w3.org/2000/svg">
<path fill-rule="evenodd" clip-rule="evenodd" d="M19.3031 5.92279L28.9948 22.743C29.2081 23.245 29.3014 23.6533 29.3281 24.0774C29.3814 25.0683 29.0348 26.0314 28.3549 26.7726C27.675 27.5112 26.7552 27.9472 25.7553 28H6.23862C5.82536 27.9749 5.41209 27.8811 5.02549 27.7358C3.09248 26.9563 2.15931 24.7631 2.94584 22.8619L12.7042 5.9109C13.0375 5.31504 13.5441 4.80109 14.1706 4.47079C15.9836 3.46536 18.2899 4.12596 19.3031 5.92279ZM17.1568 17.0076C17.1568 17.6418 16.6369 18.1716 15.997 18.1716C15.3571 18.1716 14.8238 17.6418 14.8238 17.0076V13.27C14.8238 12.6345 15.3571 12.1205 15.997 12.1205C16.6369 12.1205 17.1568 12.6345 17.1568 13.27V17.0076ZM15.997 22.6901C15.3571 22.6901 14.8238 22.1603 14.8238 21.5275C14.8238 20.892 15.3571 20.3635 15.997 20.3635C16.6369 20.3635 17.1568 20.8801 17.1568 21.5129C17.1568 22.1603 16.6369 22.6901 15.997 22.6901Z" fill="white"/>
</svg>
